<svg xmlns="http://www.w3.org/2000/svg" width="205.019" height="46.218" viewBox="0 0 205.019 46.218"><g id="Group_86" data-name="Group 86" transform="translate(-797.698 -207.957)"><g id="Group_88" data-name="Group 88" transform="translate(797.698 207.957)"><g id="Group_87" data-name="Group 87"><g id="Group_86-2" data-name="Group 86"><path id="Path_300" data-name="Path 300" d="M834.459,243.347l-5.806-7.341c2.247-3.264,3.893-6.743,3.993-10.013.338-11.142-9.356-18.036-17.037-18.036-7.992,0-17.3,5.318-17.9,17.051C797.1,237.19,815.2,249.741,815.2,249.741a71.274,71.274,0,0,0,8.189-7.364l4.733,5.984a4.04,4.04,0,1,0,6.336-5.013Z" transform="translate(-797.698 -207.957)" fill="#a6ce39"></path></g><path id="Path_301" data-name="Path 301" d="M841.134,251.822l-5.584-7.059-2.949-3.727a2.784,2.784,0,0,0-.445-.444l-.026-.023a2.758,2.758,0,0,0-.5-.307l-.051-.026a2.764,2.764,0,0,0-.529-.181l-.068-.017a2.83,2.83,0,0,0-.544-.06c-.054,0-.109,0-.163,0a10.063,10.063,0,1,0-2.585,2.05h0a2.842,2.842,0,0,0-.1.64,2.793,2.793,0,0,0,.6,1.859l3.686,4.66,4.846,6.126a2.81,2.81,0,0,0,4.407-3.487Zm-11.3-17.862a7,7,0,0,1-.28,1.372c-.069.22-.148.436-.237.646a7.035,7.035,0,0,1-6.479,4.3h0a7.033,7.033,0,1,1,0-14.065h0a7.043,7.043,0,0,1,6.479,4.3q.133.316.237.646a7.072,7.072,0,0,1,.28,2.81Z" transform="translate(-805.337 -215.669)" fill="#fff"></path></g><path id="Path_302" data-name="Path 302" d="M818.254,292.273l-1.037-.72a61.187,61.187,0,0,1-4.836-3.824h-3.313l-5.373,6.792h29.075L827.4,287.73h-3.565c-2.164,1.965-3.914,3.342-4.554,3.8Z" transform="translate(-800.731 -248.304)" fill="#a7a9ac"></path></g><g id="Group_89" data-name="Group 89" transform="translate(841.172 245.111)"><path id="Path_303" data-name="Path 303" d="M890.963,289.408c0-1.358.026-3.168.052-4.229h-.052c-.258,1.823-.621,4.785-1.022,7.021h-1.616c-.31-2.328-.673-5.276-.905-7.034h-.065c.039,1.022.078,2.793.078,4.306V292.2h-1.772v-8.729h2.832c.284,1.823.569,4.009.7,5.237h.039c.168-1.306.5-3.194.828-5.237h2.793V292.2h-1.888Z" transform="translate(-885.661 -283.304)" fill="#221f1f"></path><path id="Path_304" data-name="Path 304" d="M903.977,290.325l-.3,1.875h-2l1.72-8.729h2.819l1.746,8.729h-2.082l-.31-1.875Zm1.332-1.681c-.207-1.28-.4-2.7-.5-3.5h-.064c-.091.841-.3,2.225-.5,3.5Z" transform="translate(-893.76 -283.304)" fill="#221f1f"></path><path id="Path_305" data-name="Path 305" d="M917.73,288.632V292.2h-1.978v-8.729H918.7c1.681,0,2.548.828,2.548,2.418a1.932,1.932,0,0,1-1.125,1.978c.685.31,1.009.866,1.009,2.121v.31a14.507,14.507,0,0,0,.09,1.9h-1.939a8.9,8.9,0,0,1-.142-1.966v-.3c0-1.034-.207-1.306-.97-1.306Zm0-1.513h.466c.763,0,1.047-.271,1.047-1.125,0-.711-.258-1.034-.918-1.034h-.595Z" transform="translate(-900.88 -283.304)" fill="#221f1f"></path><path id="Path_306" data-name="Path 306" d="M928.94,283.472h1.953v3.634c.427-.879,1.267-2.651,1.784-3.634H934.9l-1.978,3.414,2.017,5.315h-2.186l-1.241-3.582-.62.931V292.2H928.94Z" transform="translate(-907.55 -283.304)" fill="#221f1f"></path><path id="Path_307" data-name="Path 307" d="M946.744,288.5h-2.651v2.082h3l-.233,1.617h-4.732v-8.729h4.732v1.642h-2.767v1.746h2.651Z" transform="translate(-914.22 -283.304)" fill="#221f1f"></path><path id="Path_308" data-name="Path 308" d="M954.785,285.114h-1.72v-1.642H958.5v1.642h-1.707V292.2h-2Z" transform="translate(-919.752 -283.304)" fill="#221f1f"></path><path id="Path_309" data-name="Path 309" d="M967.629,283.472V292.2h-2v-8.729Z" transform="translate(-926.104 -283.304)" fill="#221f1f"></path><path id="Path_310" data-name="Path 310" d="M972.375,292.2v-8.729h2.2c1.332,4.112,1.629,5.108,1.72,5.5h.039c-.09-1.1-.116-2.534-.116-3.893v-1.6h1.771V292.2h-2.159c-1.383-4.539-1.642-5.418-1.733-5.793h-.039c.064,1.048.1,2.664.1,4.086V292.2Z" transform="translate(-929.519 -283.304)" fill="#221f1f"></path><path id="Path_311" data-name="Path 311" d="M991.735,292.042h-1.474a6.218,6.218,0,0,1-.078-.685,1.8,1.8,0,0,1-1.72.854c-1.732,0-2.534-1.306-2.534-4.474,0-3.465,1.19-4.578,3.1-4.578a2.457,2.457,0,0,1,2.677,2.625h-2c-.026-.427-.078-1.048-.737-1.048-.75,0-.931.983-.931,3.013,0,2.095.168,2.883.892,2.883.608,0,.789-.517.789-1.461v-.556h-.854v-1.577h2.871Z" transform="translate(-936.374 -283.145)" fill="#221f1f"></path><path id="Path_312" data-name="Path 312" d="M1004.507,283.472h4.733V285.1H1006.5v1.888h2.561v1.616H1006.5V292.2h-1.991Z" transform="translate(-945.77 -283.304)" fill="#221f1f"></path><path id="Path_313" data-name="Path 313" d="M1021.51,287.606c0,3.207-.866,4.59-3.038,4.59-2.03,0-2.922-1.41-2.922-4.629,0-3.1,1-4.435,3-4.435C1020.6,283.132,1021.51,284.567,1021.51,287.606Zm-3.866-.039c0,2.146.194,3.052.88,3.052.724,0,.892-.841.892-3.052,0-2.082-.168-2.845-.892-2.845C1017.838,284.722,1017.644,285.525,1017.644,287.567Z" transform="translate(-951.355 -283.132)" fill="#221f1f"></path><path id="Path_314" data-name="Path 314" d="M1031.789,288.632V292.2h-1.979v-8.729h2.948c1.681,0,2.547.828,2.547,2.418a1.932,1.932,0,0,1-1.125,1.978c.685.31,1.009.866,1.009,2.121v.31a14.415,14.415,0,0,0,.09,1.9h-1.94a8.9,8.9,0,0,1-.142-1.966v-.3c0-1.034-.206-1.306-.97-1.306Zm0-1.513h.465c.763,0,1.048-.271,1.048-1.125,0-.711-.259-1.034-.918-1.034h-.594Z" transform="translate(-958.568 -283.304)" fill="#221f1f"></path><path id="Path_315" data-name="Path 315" d="M1048.665,289.494c.052.724.246,1.215.853,1.215.582,0,.763-.388.763-.892,0-.6-.3-.957-1.332-1.487-1.513-.776-2.082-1.435-2.082-2.716a2.343,2.343,0,0,1,2.638-2.483,2.367,2.367,0,0,1,2.638,2.612h-1.927c-.038-.607-.155-1.125-.724-1.125-.439,0-.646.284-.646.776s.194.763,1.151,1.228c1.616.815,2.3,1.513,2.3,2.974a2.811,2.811,0,0,1-5.612-.1Z" transform="translate(-967.104 -283.132)" fill="#221f1f"></path><path id="Path_316" data-name="Path 316" d="M1065.255,289.408c0-1.358.026-3.168.052-4.229h-.052c-.259,1.823-.621,4.785-1.021,7.021h-1.616c-.31-2.328-.673-5.276-.905-7.034h-.065c.039,1.022.078,2.793.078,4.306V292.2h-1.771v-8.729h2.832c.284,1.823.569,4.009.7,5.237h.039c.168-1.306.5-3.194.828-5.237h2.793V292.2h-1.888Z" transform="translate(-973.813 -283.304)" fill="#221f1f"></path><path id="Path_317" data-name="Path 317" d="M1078.268,290.325l-.3,1.875h-2l1.72-8.729h2.819l1.746,8.729h-2.082l-.31-1.875Zm1.332-1.681c-.207-1.28-.4-2.7-.5-3.5h-.064c-.091.841-.3,2.225-.5,3.5Z" transform="translate(-981.912 -283.304)" fill="#221f1f"></path><path id="Path_318" data-name="Path 318" d="M1090.07,283.472h2v7.1h2.767l-.181,1.629h-4.591Z" transform="translate(-989.046 -283.304)" fill="#221f1f"></path><path id="Path_319" data-name="Path 319" d="M1101.164,283.472h2v7.1h2.768l-.181,1.629h-4.59Z" transform="translate(-994.657 -283.304)" fill="#221f1f"></path><path id="Path_320" data-name="Path 320" d="M1116.785,283.472h2.91c1.564,0,2.431.789,2.431,2.237a1.7,1.7,0,0,1-1.034,1.8,2.043,2.043,0,0,1,1.28,2.108,2.419,2.419,0,0,1-2.741,2.586h-2.845Zm2.5,3.4c.737,0,.905-.3.905-.97s-.272-.97-.892-.97h-.556v1.939Zm-.543,3.879h.633c.621,0,.944-.3.944-1.215,0-.879-.259-1.254-1.06-1.254h-.517Z" transform="translate(-1002.557 -283.304)" fill="#221f1f"></path><path id="Path_321" data-name="Path 321" d="M1131.885,283.472v6.1c0,.569.116,1.215.827,1.215.686,0,.8-.556.8-1.2v-6.117h2.018v6.052a2.534,2.534,0,0,1-2.871,2.845c-2.017,0-2.793-1.06-2.793-2.858v-6.039Z" transform="translate(-1009.174 -283.304)" fill="#221f1f"></path><path id="Path_322" data-name="Path 322" d="M1145.06,289.494c.052.724.246,1.215.854,1.215.582,0,.763-.388.763-.892,0-.6-.3-.957-1.332-1.487-1.513-.776-2.082-1.435-2.082-2.716a2.343,2.343,0,0,1,2.638-2.483,2.367,2.367,0,0,1,2.638,2.612h-1.927c-.039-.607-.155-1.125-.724-1.125-.439,0-.646.284-.646.776s.194.763,1.151,1.228c1.616.815,2.3,1.513,2.3,2.974a2.811,2.811,0,0,1-5.612-.1Z" transform="translate(-1015.858 -283.132)" fill="#221f1f"></path><path id="Path_323" data-name="Path 323" d="M1158.379,283.472V292.2h-2v-8.729Z" transform="translate(-1022.58 -283.304)" fill="#221f1f"></path><path id="Path_324" data-name="Path 324" d="M1163.125,292.2v-8.729h2.2c1.332,4.112,1.629,5.108,1.72,5.5h.039c-.09-1.1-.116-2.534-.116-3.893v-1.6h1.771V292.2h-2.159c-1.384-4.539-1.642-5.418-1.733-5.793h-.039c.065,1.048.1,2.664.1,4.086V292.2Z" transform="translate(-1025.995 -283.304)" fill="#221f1f"></path><path id="Path_325" data-name="Path 325" d="M1181.766,288.5h-2.65v2.082h3l-.233,1.617h-4.733v-8.729h4.733v1.642h-2.767v1.746h2.65Z" transform="translate(-1033.089 -283.304)" fill="#221f1f"></path><path id="Path_326" data-name="Path 326" d="M1190.432,289.494c.052.724.246,1.215.853,1.215.582,0,.763-.388.763-.892,0-.6-.3-.957-1.332-1.487-1.513-.776-2.082-1.435-2.082-2.716a2.343,2.343,0,0,1,2.638-2.483,2.367,2.367,0,0,1,2.638,2.612h-1.927c-.039-.607-.156-1.125-.725-1.125-.439,0-.646.284-.646.776s.194.763,1.151,1.228c1.616.815,2.3,1.513,2.3,2.974a2.811,2.811,0,0,1-5.612-.1Z" transform="translate(-1038.806 -283.132)" fill="#221f1f"></path><path id="Path_327" data-name="Path 327" d="M1203.15,289.494c.051.724.246,1.215.854,1.215.582,0,.763-.388.763-.892,0-.6-.3-.957-1.332-1.487-1.513-.776-2.082-1.435-2.082-2.716a2.343,2.343,0,0,1,2.638-2.483,2.367,2.367,0,0,1,2.638,2.612H1204.7c-.039-.607-.155-1.125-.724-1.125-.439,0-.646.284-.646.776s.194.763,1.151,1.228c1.616.815,2.3,1.513,2.3,2.974a2.811,2.811,0,0,1-5.612-.1Z" transform="translate(-1045.238 -283.132)" fill="#221f1f"></path></g><g id="Group_92" data-name="Group 92" transform="translate(841.172 207.957)"><g id="Group_90" data-name="Group 90"><path id="Path_328" data-name="Path 328" d="M895.257,208.408a5.7,5.7,0,0,1,3.019,3.019,5.491,5.491,0,0,1,.451,2.207v3.6a.768.768,0,0,1-.586.811l-4.1.632q-.587.18-.586-.451V213.86a1.077,1.077,0,0,0-1.081-1.081h-.361a1.077,1.077,0,0,0-1.081,1.081v20.366a1.078,1.078,0,0,0,1.081,1.082h.361a1.077,1.077,0,0,0,1.081-1.082v-6.308q0-.63.586-.451l4.1.541a.77.77,0,0,1,.586.811v5.632a5.489,5.489,0,0,1-.451,2.208,5.711,5.711,0,0,1-3.019,3.019,5.482,5.482,0,0,1-2.208.451h-1.712a5.478,5.478,0,0,1-2.207-.451,5.7,5.7,0,0,1-3.019-3.019,5.463,5.463,0,0,1-.451-2.208V213.634a5.466,5.466,0,0,1,.451-2.207,5.695,5.695,0,0,1,3.019-3.019,5.478,5.478,0,0,1,2.207-.451h1.712A5.482,5.482,0,0,1,895.257,208.408Z" transform="translate(-885.661 -207.957)" fill="#221f1f"></path><path id="Path_329" data-name="Path 329" d="M929.535,209.226V239.5a.557.557,0,0,1-.631.631h-4.01a.557.557,0,0,1-.631-.631V226.618H921.29V239.5a.558.558,0,0,1-.632.631h-4.01a.557.557,0,0,1-.63-.631V209.226a.557.557,0,0,1,.63-.63h4.01a.558.558,0,0,1,.632.63v12.121h2.973V209.226a.557.557,0,0,1,.631-.63h4.01A.557.557,0,0,1,929.535,209.226Z" transform="translate(-901.015 -208.28)" fill="#221f1f"></path><path id="Path_330" data-name="Path 330" d="M960.809,234.451a5.479,5.479,0,0,1-.451,2.208,5.709,5.709,0,0,1-3.019,3.019,5.484,5.484,0,0,1-2.208.451H953.42a5.48,5.48,0,0,1-2.208-.451,5.712,5.712,0,0,1-3.019-3.019,5.462,5.462,0,0,1-.451-2.208V213.634a5.465,5.465,0,0,1,.451-2.207,5.7,5.7,0,0,1,3.019-3.019,5.481,5.481,0,0,1,2.208-.451h1.712a5.485,5.485,0,0,1,2.208.451,5.7,5.7,0,0,1,3.019,3.019,5.482,5.482,0,0,1,.451,2.207Zm-5.271-20.591a1.077,1.077,0,0,0-1.082-1.081h-.36a1.077,1.077,0,0,0-1.082,1.081v20.366a1.078,1.078,0,0,0,1.082,1.082h.36a1.078,1.078,0,0,0,1.082-1.082Z" transform="translate(-917.06 -207.957)" fill="#221f1f"></path><path id="Path_331" data-name="Path 331" d="M990.71,234.451a5.481,5.481,0,0,1-.451,2.208,5.713,5.713,0,0,1-3.019,3.019,5.486,5.486,0,0,1-2.208.451h-1.711a5.482,5.482,0,0,1-2.208-.451,5.71,5.71,0,0,1-3.018-3.019,5.464,5.464,0,0,1-.451-2.208V213.634a5.467,5.467,0,0,1,.451-2.207,5.7,5.7,0,0,1,3.018-3.019,5.483,5.483,0,0,1,2.208-.451h1.711a5.487,5.487,0,0,1,2.208.451,5.7,5.7,0,0,1,3.019,3.019,5.484,5.484,0,0,1,.451,2.207Zm-5.271-20.591a1.077,1.077,0,0,0-1.082-1.081H984a1.076,1.076,0,0,0-1.082,1.081v20.366A1.077,1.077,0,0,0,984,235.307h.36a1.078,1.078,0,0,0,1.082-1.082Z" transform="translate(-932.184 -207.957)" fill="#221f1f"></path><path id="Path_332" data-name="Path 332" d="M1016.686,208.408a5.7,5.7,0,0,1,3.019,3.019,5.482,5.482,0,0,1,.451,2.207v1.712a.769.769,0,0,1-.586.811l-4.1,1.082q-.586.18-.586-.45V213.86a1.077,1.077,0,0,0-1.082-1.081h-.36a1.077,1.077,0,0,0-1.082,1.081v4.1a3.256,3.256,0,0,0,.181.855,2.042,2.042,0,0,0,.5.721l5.9,4.415a2.936,2.936,0,0,1,.924,1.284,8.028,8.028,0,0,1,.293,1.464v7.75a5.479,5.479,0,0,1-.451,2.208,5.713,5.713,0,0,1-3.019,3.019,5.485,5.485,0,0,1-2.208.451h-1.712a5.48,5.48,0,0,1-2.208-.451,5.708,5.708,0,0,1-3.019-3.019,5.464,5.464,0,0,1-.451-2.208v-4.325a.77.77,0,0,1,.585-.812l4.1-1.081q.585-.179.586.451v5.542a1.077,1.077,0,0,0,1.082,1.082h.36a1.078,1.078,0,0,0,1.082-1.082v-5.947a4.941,4.941,0,0,0-.181-1.037,1.753,1.753,0,0,0-.54-.811l-5.812-4.46a4.187,4.187,0,0,1-.969-1.262,3.989,3.989,0,0,1-.293-1.668v-5.407a5.467,5.467,0,0,1,.451-2.207,5.7,5.7,0,0,1,3.019-3.019,5.481,5.481,0,0,1,2.208-.451h1.712A5.485,5.485,0,0,1,1016.686,208.408Z" transform="translate(-947.076 -207.957)" fill="#221f1f"></path><path id="Path_333" data-name="Path 333" d="M1048.485,235.494v4.01a.557.557,0,0,1-.63.631h-9.778a.557.557,0,0,1-.631-.631V209.226a.557.557,0,0,1,.631-.63h9.778a.557.557,0,0,1,.63.63v4.01a.558.558,0,0,1-.63.632h-5.137v6.488h4.46a.558.558,0,0,1,.631.631V225a.558.558,0,0,1-.631.631h-4.46v9.237h5.137A.557.557,0,0,1,1048.485,235.494Z" transform="translate(-962.43 -208.28)" fill="#221f1f"></path></g><g id="Group_91" data-name="Group 91" transform="translate(93.377)"><path id="Path_334" data-name="Path 334" d="M1086.087,235.494v4.01a.557.557,0,0,1-.631.631h-10.228a.557.557,0,0,1-.631-.631V209.226a.557.557,0,0,1,.631-.63h4.01a.558.558,0,0,1,.631.63v25.638h5.587A.558.558,0,0,1,1086.087,235.494Z" transform="translate(-1074.597 -208.28)" fill="#a6ce39"></path><path id="Path_335" data-name="Path 335" d="M1112.1,234.451a5.481,5.481,0,0,1-.451,2.208,5.713,5.713,0,0,1-3.019,3.019,5.486,5.486,0,0,1-2.208.451h-1.712a5.483,5.483,0,0,1-2.208-.451,5.71,5.71,0,0,1-3.018-3.019,5.463,5.463,0,0,1-.451-2.208V213.634a5.466,5.466,0,0,1,.451-2.207,5.7,5.7,0,0,1,3.018-3.019,5.484,5.484,0,0,1,2.208-.451h1.712a5.487,5.487,0,0,1,2.208.451,5.7,5.7,0,0,1,3.019,3.019,5.484,5.484,0,0,1,.451,2.207Zm-5.271-20.591a1.077,1.077,0,0,0-1.082-1.081h-.36a1.077,1.077,0,0,0-1.082,1.081v20.366a1.078,1.078,0,0,0,1.082,1.082h.36a1.078,1.078,0,0,0,1.082-1.082Z" transform="translate(-1086.954 -207.957)" fill="#a6ce39"></path><path id="Path_336" data-name="Path 336" d="M1138.527,208.408a5.7,5.7,0,0,1,3.019,3.019,5.482,5.482,0,0,1,.451,2.207v3.6a.769.769,0,0,1-.586.811l-4.1.632q-.585.18-.585-.451V213.86a1.077,1.077,0,0,0-1.082-1.081h-.36a1.078,1.078,0,0,0-1.082,1.081v20.366a1.078,1.078,0,0,0,1.082,1.082h.36a1.078,1.078,0,0,0,1.082-1.082v-6.308q0-.63.585-.451l4.1.541a.77.77,0,0,1,.586.811v5.632a5.479,5.479,0,0,1-.451,2.208,5.713,5.713,0,0,1-3.019,3.019,5.489,5.489,0,0,1-2.208.451h-1.711a5.483,5.483,0,0,1-2.208-.451,5.713,5.713,0,0,1-3.019-3.019,5.471,5.471,0,0,1-.45-2.208V213.634a5.474,5.474,0,0,1,.45-2.207,5.7,5.7,0,0,1,3.019-3.019,5.484,5.484,0,0,1,2.208-.451h1.711A5.49,5.49,0,0,1,1138.527,208.408Z" transform="translate(-1102.077 -207.957)" fill="#a6ce39"></path><path id="Path_337" data-name="Path 337" d="M1171.236,239.5q.089.632-.541.631h-4.1a.634.634,0,0,1-.677-.631l-.36-4.866h-2.794l-.361,4.866a.633.633,0,0,1-.676.631h-4.1q-.632,0-.541-.631l3.38-30.278a.656.656,0,0,1,.721-.63h5.947a.657.657,0,0,1,.721.63Zm-6.037-9.913-.857-12.209h-.36l-.856,12.209Z" transform="translate(-1116.313 -208.28)" fill="#a6ce39"></path><path id="Path_338" data-name="Path 338" d="M1200.768,235.494v4.01a.557.557,0,0,1-.631.631H1189.91a.557.557,0,0,1-.631-.631V209.226a.557.557,0,0,1,.631-.63h4.01a.558.558,0,0,1,.631.63v25.638h5.587A.558.558,0,0,1,1200.768,235.494Z" transform="translate(-1132.6 -208.28)" fill="#a6ce39"></path></g></g></g></svg>