<?xml version="1.0" encoding="utf-8"?>
<!-- Generator: Adobe Illustrator 26.0.3, SVG Export Plug-In . SVG Version: 6.00 Build 0)  -->
<svg version="1.1" id="Layer_1" xmlns="http://www.w3.org/2000/svg" xmlns:xlink="http://www.w3.org/1999/xlink" x="0px" y="0px"
	 viewBox="0 0 492 145" style="enable-background:new 0 0 492 145;" xml:space="preserve">
<style type="text/css">
	.st0{fill:#F27121;}
	.st1{fill:#939497;}
</style>
<g id="primary_logo">
	<g id="icon">
		<polygon class="st0" points="26.72,72.54 47.38,52.23 115.33,118.22 73.6,118.22 		"/>
		<polygon class="st1" points="23.37,121.03 48.63,101.79 23.37,77.42 		"/>
		<polygon class="st0" points="119.02,72.46 98.36,92.77 30.41,26.78 72.14,26.78 		"/>
		<polygon class="st1" points="122.36,23.97 97.11,43.21 122.36,67.58 		"/>
	</g>
	<g id="wordmark">
		<g id="newfold">
			<path class="st0" d="M150.01,33.38h7.56v4.79c0,0.39,0.2,0.59,0.59,0.59c0.17,0,0.32-0.07,0.46-0.21
				c0.14-0.14,0.29-0.29,0.46-0.46c2.97-3.98,7.5-5.96,13.61-5.96c5.49,0,9.8,1.54,12.94,4.62c3.13,3.08,4.7,7.42,4.7,13.02v27.3
				h-7.56V51.02c0-3.98-1.01-7-3.02-9.07c-2.02-2.07-4.93-3.11-8.74-3.11c-4.31,0-7.63,1.3-9.95,3.91
				c-2.32,2.6-3.49,6.48-3.49,11.63v22.68h-7.56V33.38z"/>
			<path class="st0" d="M201.93,42.96c1.85-3.47,4.44-6.15,7.77-8.02c3.33-1.88,7.24-2.81,11.72-2.81c4.42,0,8.19,0.92,11.3,2.77
				c3.11,1.85,5.43,4.3,6.97,7.35c1.54,3.05,2.31,6.4,2.31,10.04v5.04h-34.86c0.28,4.37,1.75,7.84,4.41,10.42
				c2.66,2.58,6.23,3.86,10.71,3.86c3.64,0,6.43-0.74,8.36-2.23c1.93-1.48,3.35-3.54,4.24-6.17h7.98
				c-1.06,4.09-3.23,7.63-6.51,10.63c-3.28,3-7.97,4.49-14.07,4.49c-4.59,0-8.64-0.94-12.14-2.81s-6.2-4.55-8.11-8.02
				c-1.9-3.47-2.86-7.56-2.86-12.26S200.08,46.43,201.93,42.96z M233.59,51.02c0-3.81-0.98-6.79-2.94-8.95
				c-1.96-2.16-5.04-3.23-9.24-3.23c-3.92,0-7.13,1.05-9.62,3.15c-2.49,2.1-4.02,5.11-4.58,9.03H233.59z"/>
			<path class="st0" d="M248.46,33.38h7.64l8.4,35.53c0.11,0.39,0.24,0.66,0.38,0.8c0.14,0.14,0.35,0.21,0.63,0.21
				c0.28,0,0.5-0.07,0.67-0.21c0.17-0.14,0.28-0.41,0.34-0.8l8.32-35.53h13.61l8.32,35.53c0.11,0.39,0.24,0.66,0.38,0.8
				c0.14,0.14,0.35,0.21,0.63,0.21c0.28,0,0.5-0.07,0.67-0.21c0.17-0.14,0.28-0.41,0.34-0.8l8.4-35.53h7.64v1.68l-10.25,42h-13.44
				l-8.65-36.62c-0.17-0.5-0.45-0.76-0.84-0.76c-0.22,0-0.39,0.06-0.5,0.17c-0.11,0.11-0.22,0.31-0.34,0.59l-8.65,36.62h-13.44
				l-10.25-42V33.38z"/>
			<path class="st0" d="M319.02,33.38h10.5v-1.26c0-5.26,1.27-9.17,3.82-11.72c2.55-2.55,6.45-3.82,11.72-3.82h7.56v6.72h-5.88h-8.4
				c-0.39,0-0.7,0.11-0.92,0.34c-0.22,0.22-0.34,0.53-0.34,0.92v7.56v1.26h11.34v6.72h-11.34v36.96h-7.56V40.1h-10.5V33.38z"/>
			<path class="st0" d="M386.52,34.81c3.44,1.79,6.16,4.42,8.15,7.9c1.99,3.47,2.98,7.64,2.98,12.52s-0.99,9.04-2.98,12.52
				c-1.99,3.47-4.7,6.1-8.15,7.9c-3.44,1.79-7.29,2.69-11.55,2.69c-4.26,0-8.11-0.9-11.55-2.69c-3.44-1.79-6.16-4.42-8.15-7.9
				c-1.99-3.47-2.98-7.64-2.98-12.52s0.99-9.04,2.98-12.52c1.99-3.47,4.7-6.1,8.15-7.9c3.44-1.79,7.29-2.69,11.55-2.69
				C379.22,32.12,383.07,33.02,386.52,34.81z M364,43.17c-2.77,2.88-4.16,6.9-4.16,12.05c0,5.15,1.39,9.17,4.16,12.05
				c2.77,2.88,6.43,4.33,10.96,4.33s8.19-1.44,10.96-4.33c2.77-2.88,4.16-6.9,4.16-12.05c0-5.15-1.39-9.17-4.16-12.05
				c-2.77-2.88-6.43-4.33-10.96-4.33S366.78,40.28,364,43.17z"/>
			<path class="st0" d="M414.45,16.58v60.48h-7.56V16.58H414.45z"/>
			<path class="st0" d="M426.75,42.45c2.04-3.47,4.69-6.06,7.94-7.77c3.25-1.71,6.72-2.56,10.42-2.56c6.22,0,11.03,2.04,14.45,6.13
				c0.28,0.39,0.59,0.59,0.92,0.59c0.39,0,0.59-0.22,0.59-0.67V16.58h7.56v60.48h-7.56v-4.79c0-0.45-0.2-0.67-0.59-0.67
				c-0.34,0-0.64,0.2-0.92,0.59c-3.42,4.09-8.23,6.13-14.45,6.13c-3.7,0-7.17-0.85-10.42-2.56c-3.25-1.71-5.89-4.3-7.94-7.77
				c-2.04-3.47-3.07-7.73-3.07-12.77S424.71,45.93,426.75,42.45z M435.4,67.28c2.77,2.88,6.43,4.33,10.96,4.33s8.19-1.44,10.96-4.33
				c2.77-2.88,4.16-6.9,4.16-12.05c0-5.15-1.39-9.17-4.16-12.05c-2.77-2.88-6.43-4.33-10.96-4.33s-8.19,1.44-10.96,4.33
				c-2.77,2.88-4.16,6.9-4.16,12.05C431.25,60.38,432.63,64.39,435.4,67.28z"/>
		</g>
		<g id="digital">
			<path class="st1" d="M151.14,102.36c1.03-1.75,2.36-3.05,3.99-3.91c1.63-0.86,3.38-1.29,5.24-1.29c3.12,0,5.55,1.03,7.26,3.08
				c0.14,0.2,0.3,0.3,0.46,0.3c0.2,0,0.29-0.11,0.29-0.34V89.36h3.8v30.4h-3.8v-2.41c0-0.22-0.1-0.34-0.29-0.34
				c-0.17,0-0.32,0.1-0.46,0.3c-1.72,2.06-4.14,3.08-7.26,3.08c-1.86,0-3.6-0.43-5.24-1.29s-2.96-2.16-3.99-3.91
				c-1.03-1.75-1.54-3.88-1.54-6.42C149.6,106.25,150.12,104.11,151.14,102.36z M155.49,114.84c1.39,1.45,3.23,2.17,5.51,2.17
				s4.12-0.72,5.51-2.17s2.09-3.47,2.09-6.06c0-2.59-0.7-4.61-2.09-6.06c-1.39-1.45-3.23-2.17-5.51-2.17s-4.12,0.73-5.51,2.17
				c-1.39,1.45-2.09,3.47-2.09,6.06C153.4,111.37,154.1,113.39,155.49,114.84z"/>
			<path class="st1" d="M182.75,89.36v5.07h-5.49v-5.07H182.75z M181.91,97.8v21.96h-3.8V97.8H181.91z"/>
			<path class="st1" d="M190.35,120.48c0.22,1.41,0.88,2.52,1.96,3.34c1.08,0.82,2.55,1.22,4.41,1.22c2.53,0,4.5-0.65,5.89-1.94
				s2.09-3.11,2.09-5.45v-1.52c0-0.17-0.08-0.25-0.25-0.25c-0.14,0-0.27,0.07-0.38,0.21c-1.55,2.03-3.94,3.04-7.18,3.04
				c-1.89,0-3.63-0.43-5.24-1.29s-2.89-2.11-3.86-3.76c-0.97-1.65-1.46-3.62-1.46-5.93s0.49-4.29,1.46-5.93
				c0.97-1.65,2.26-2.9,3.86-3.76c1.6-0.86,3.35-1.29,5.24-1.29c3.07,0,5.48,1.03,7.22,3.08c0.25,0.31,0.48,0.46,0.68,0.46
				c0.11,0,0.2-0.04,0.25-0.11s0.1-0.16,0.13-0.27l0.8-2.53h2.53v19.64c0,3.46-1.04,6.16-3.12,8.09c-2.08,1.93-4.98,2.89-8.7,2.89
				c-3.18,0-5.68-0.73-7.5-2.17c-1.82-1.45-2.84-3.37-3.06-5.76H190.35z M191.13,112.22c0.66,1.14,1.55,2.01,2.68,2.62
				c1.12,0.61,2.36,0.91,3.72,0.91s2.59-0.3,3.72-0.91s2.02-1.48,2.68-2.62c0.66-1.14,0.99-2.5,0.99-4.07
				c0-1.58-0.33-2.94-0.99-4.08c-0.66-1.14-1.56-2.01-2.68-2.62s-2.36-0.91-3.72-0.91s-2.59,0.3-3.72,0.91
				c-1.13,0.61-2.02,1.48-2.68,2.62c-0.66,1.14-0.99,2.5-0.99,4.08C190.14,109.72,190.47,111.08,191.13,112.22z"/>
			<path class="st1" d="M219.07,89.36v5.07h-5.49v-5.07H219.07z M218.22,97.8v21.96h-3.8V97.8H218.22z"/>
			<path class="st1" d="M221.81,97.8h5.07v-5.91h3.8v5.91h5.7v3.38h-5.7v10.35v4.22c0,0.2,0.06,0.35,0.17,0.46s0.27,0.17,0.46,0.17
				h4.22h1.48v3.38h-2.96c-2.42,0-4.22-0.59-5.41-1.77c-1.18-1.18-1.77-2.98-1.77-5.41v-11.4h-5.07V97.8z"/>
			<path class="st1" d="M242.02,108.63c1.34-1.11,3.34-1.7,6.02-1.75l8.02-0.17v-0.89c0-1.66-0.48-2.96-1.44-3.88
				s-2.45-1.39-4.48-1.39c-1.8,0-3.17,0.39-4.1,1.18c-0.93,0.79-1.39,1.8-1.39,3.04h-4.01c0.08-1.44,0.51-2.73,1.27-3.88
				c0.76-1.15,1.84-2.06,3.25-2.72c1.41-0.66,3.07-0.99,4.98-0.99c3.21,0,5.63,0.77,7.26,2.32c1.63,1.55,2.45,3.73,2.45,6.54v13.72
				h-3.8v-2.28c0-0.17-0.08-0.25-0.25-0.25c-0.14,0-0.28,0.08-0.42,0.25c-1.52,1.94-3.76,2.91-6.71,2.91c-2.7,0-4.82-0.66-6.36-1.99
				c-1.54-1.32-2.3-3.05-2.3-5.19C240.01,111.27,240.68,109.75,242.02,108.63z M245.21,116c0.93,0.68,2.22,1.01,3.88,1.01
				c2.17,0,3.87-0.59,5.11-1.77c1.24-1.18,1.86-2.91,1.86-5.19v-0.17l-8.02,0.17c-1.44,0.03-2.5,0.32-3.19,0.87
				c-0.69,0.55-1.03,1.32-1.03,2.3C243.81,114.4,244.28,115.33,245.21,116z"/>
			<path class="st1" d="M269.36,89.36v30.4h-3.8v-30.4H269.36z"/>
		</g>
	</g>
</g>
</svg>
