<svg xmlns="http://www.w3.org/2000/svg" width="123.99" height="66.865" viewBox="0 0 123.99 66.865"><g id="TML_logo_tagline_pos_rgb" transform="translate(-54 -53.9)"><path id="Path_1831" data-name="Path 1831" d="M298.707,128.518l-3.247-8.984v-2.344l.293-.366-3.271-.024.342.366.024,2.344-2.148,5.981.22,3.882Z" transform="translate(-178.916 -47.545)" fill="#fff"></path><path id="Path_1832" data-name="Path 1832" d="M228.219,101.993a12.319,12.319,0,0,1,2.637-1.221V92.081l-.635-.732,4.907-.049-.781.83v8.618a7.081,7.081,0,0,1,3.1,1.269,9.87,9.87,0,0,1,2.637,2.856l-.293.22-9.814,1.416-3.882-1.684-.2-.757A10.7,10.7,0,0,1,228.219,101.993Z" transform="translate(-129.935 -28.27)" fill="#fff"></path><path id="Path_1833" data-name="Path 1833" d="M181.171,127.443v-9.326l-.171-.293,11.132-.024-.269.366.049,4.419s-1,1.465-1.392,2.075c-.537.854-.854,2.319-1.025,2.368-.879.22-1.611.439-2.246.561-.928.2-3.735.366-3.735.366Z" transform="translate(-95.996 -48.301)" fill="#fff"></path><path id="Path_1834" data-name="Path 1834" d="M294.7,168.155l-1.709-4.663a.725.725,0,0,0-.806-.439s-1.88.391-3.613.561a11,11,0,0,1-3.344-.317,9.249,9.249,0,0,1-2.124,5.468h11.181A.443.443,0,0,0,294.7,168.155Z" transform="translate(-173.171 -82.494)" fill="#502c7d"></path><path id="Path_1835" data-name="Path 1835" d="M306.274,93.661a.538.538,0,1,1-.537-.561A.547.547,0,0,1,306.274,93.661Z" transform="translate(-189.876 -29.63)" fill="#502c7d"></path><path id="Path_1836" data-name="Path 1836" d="M311.174,150.462a.538.538,0,1,1-.537-.561A.533.533,0,0,1,311.174,150.462Z" transform="translate(-193.58 -72.564)" fill="#502c7d"></path><path id="Path_1837" data-name="Path 1837" d="M299.928,79.288a.485.485,0,0,1-.464.488.469.469,0,0,1-.464-.488.485.485,0,0,1,.464-.488A.469.469,0,0,1,299.928,79.288Z" transform="translate(-185.19 -18.821)" fill="#502c7d"></path><path id="Path_1838" data-name="Path 1838" d="M296.328,100.188a.464.464,0,1,1-.464-.488A.485.485,0,0,1,296.328,100.188Z" transform="translate(-182.469 -34.619)" fill="#502c7d"></path><path id="Path_1839" data-name="Path 1839" d="M190.391,154.086a4.892,4.892,0,0,0-1.831.293,19.1,19.1,0,0,1-6.86.488v4.956c0,1.343.61,2.1,2.148,2.1h6.469a2.52,2.52,0,0,0,1.587-.415,9.048,9.048,0,0,1-1.733-5.371A8.128,8.128,0,0,1,190.391,154.086Z" transform="translate(-96.525 -75.725)" fill="#f6921e"></path><path id="Path_1840" data-name="Path 1840" d="M196.751,123.225a1.025,1.025,0,1,1-1.025-1.025A1.031,1.031,0,0,1,196.751,123.225Z" transform="translate(-106.352 -51.626)" fill="#f59120"></path><path id="Path_1841" data-name="Path 1841" d="M185.725,104.813a.513.513,0,1,1-.513-.513A.516.516,0,0,1,185.725,104.813Z" transform="translate(-98.793 -38.096)" fill="#f59120"></path><path id="Path_1842" data-name="Path 1842" d="M194.335,96.609a.317.317,0,1,1-.317-.317A.294.294,0,0,1,194.335,96.609Z" transform="translate(-105.596 -32.041)" fill="#f59120"></path><path id="Path_1843" data-name="Path 1843" d="M208.361,96.231V94.2l.659-.561.024-.073a.851.851,0,0,0-.049-.806.869.869,0,0,0-.781-.317h-4.834a.9.9,0,0,0-.781.317.881.881,0,0,0-.073.806l.024.073.635.561v2.026l-1.465,3.979a9.451,9.451,0,0,0-5.42-4.492V88.395l.928-.806.024-.049a1.236,1.236,0,0,0,.049-1.074.909.909,0,0,0-.854-.366H190.3a1.047,1.047,0,0,0-.9.366,1.163,1.163,0,0,0-.122,1.025l.024.073.83.83v7.47a9.7,9.7,0,0,0-2.368,1.294v-2.71l.757-.659.024-.073a1.027,1.027,0,0,0-.024-.9c-.1-.171-.317-.317-.781-.317H174.867a1,1,0,0,0-.806.317.964.964,0,0,0-.171.854l.024.073.61.684v14.452a2.963,2.963,0,0,0,2.832,2.978h7.91a2.249,2.249,0,0,0,1.318-.439,4.513,4.513,0,0,0,.342.342l.1.122h27.147Zm-4.492.122V93.912l-.708-.635a.22.22,0,0,1,.024-.122c.024-.024.073-.049.244-.049h4.834a.766.766,0,0,1,.22.024c.024.024,0,.073,0,.122l-.757.635v2.441l5.493,14.818H200.476a9.552,9.552,0,0,0,1.709-10.131Zm-18.627,14.818h-7.91a2.309,2.309,0,0,1-2.173-2.319V94.132L174.5,93.4a.328.328,0,0,1,.049-.22.409.409,0,0,1,.293-.073h12.865a.767.767,0,0,1,.22.024.3.3,0,0,1-.024.244l-.83.757v3.54a8.6,8.6,0,0,0-1.269,1.391,9.5,9.5,0,0,0,.342,11.84A1.7,1.7,0,0,1,185.243,111.171Zm2.026,0a9.053,9.053,0,0,1-2.71-6.4,8.752,8.752,0,0,1,6.225-8.471v-.684h-.024V88.126l-.879-.9a.565.565,0,0,1,.049-.391c.073-.1.244-.1.391-.1h6.152c.2,0,.269.024.293.049.049.073,0,.244-.049.391l-1.05.928v8.1h.024a8.886,8.886,0,0,1,6.567,8.569,9.053,9.053,0,0,1-2.71,6.4Z" transform="translate(-90.596 -24.339)"></path><path id="Path_1844" data-name="Path 1844" d="M234.064,144.015c-2.173-.561-3.344.684-7.1,1.245a6.122,6.122,0,0,1-5.444-1.66,8.2,8.2,0,0,0-1.416,4.638,7.88,7.88,0,0,0,2.563,5.835h11.571a8.531,8.531,0,0,0,2.392-5.835,8.2,8.2,0,0,0-.952-3.857Q234.979,144.235,234.064,144.015Z" transform="translate(-125.551 -67.802)" fill="#ec1164"></path><path id="Path_1845" data-name="Path 1845" d="M254.721,116.11a.61.61,0,1,1-.61-.61A.6.6,0,0,1,254.721,116.11Z" transform="translate(-150.797 -46.562)" fill="#ec1164"></path><path id="Path_1846" data-name="Path 1846" d="M261.621,79.01a.61.61,0,1,1-.61-.61A.637.637,0,0,1,261.621,79.01Z" transform="translate(-156.013 -18.519)" fill="#ec1164"></path><path id="Path_1847" data-name="Path 1847" d="M243.192,55.1a1.2,1.2,0,1,1-1.2-1.2A1.2,1.2,0,0,1,243.192,55.1Z" transform="translate(-141.198 0)" fill="#ec1164"></path><g id="Group_133" data-name="Group 133" transform="translate(54 68.132)"><g id="Group_132" data-name="Group 132" transform="translate(0 0)"><path id="Path_1848" data-name="Path 1848" d="M61.763,115.059h-2.49v16.6H56.49v-16.6H54V112.3h7.739v2.759Z" transform="translate(-54 -112.276)" fill="#020000"></path><path id="Path_1849" data-name="Path 1849" d="M96.483,112.2v8.3h2.759v-8.3H102v19.359H99.242v-8.3H96.483v8.3H93.7V112.2Z" transform="translate(-84.008 -112.2)" fill="#020000"></path><path id="Path_1850" data-name="Path 1850" d="M135.7,112.2h6.909v2.759h-4.15V120.5h3.467v2.759h-3.467V128.8h4.15v2.759H135.7Z" transform="translate(-115.755 -112.2)" fill="#020000"></path></g><path id="Path_1851" data-name="Path 1851" d="M65.575,196.8l2.368,13.329,2.49-13.329h4.175v19.432H71.824V203.05l-2.49,13.183H66.551L64.183,203.05v13.183H61.4V196.8Z" transform="translate(-59.593 -176.147)" fill="#020000"></path><path id="Path_1852" data-name="Path 1852" d="M120.6,216.232l2.222-19.432h4.712l2.222,19.432h-2.783l-.561-4.174h-2.49l-.561,4.174Zm4.565-16.5-.977,9.57h1.953Z" transform="translate(-104.341 -176.147)" fill="#020000"></path><path id="Path_1853" data-name="Path 1853" d="M169.566,209.983a1.23,1.23,0,0,0-1.391-1.392h-1.392v7.641H164V196.8h4.175q4.174,0,4.174,4.175v3.467a2.718,2.718,0,0,1-2.075,2.783,2.872,2.872,0,0,1,2.075,2.783v6.25h-2.783Zm-2.759-10.4v6.25H168.2a1.23,1.23,0,0,0,1.391-1.391v-3.467a1.23,1.23,0,0,0-1.391-1.392Z" transform="translate(-137.146 -176.147)" fill="#020000"></path><path id="Path_1854" data-name="Path 1854" d="M208.983,196.8v8.325l2.637-8.325h2.905l-3,9.716,3,9.716H211.62l-2.637-8.325v8.325H206.2V196.8Z" transform="translate(-169.044 -176.147)" fill="#020000"></path><path id="Path_1855" data-name="Path 1855" d="M248.4,196.8h6.933v2.783h-4.175v5.566h3.491v2.783h-3.467V213.5h4.175v2.783h-6.933V196.8Z" transform="translate(-200.942 -176.147)" fill="#020000"></path><path id="Path_1856" data-name="Path 1856" d="M292.663,199.583h-2.49v16.674H287.39V199.583H284.9V196.8h7.788v2.783Z" transform="translate(-228.532 -176.147)" fill="#020000"></path><path id="Path_1857" data-name="Path 1857" d="M327.483,196.8v19.432H324.7V196.8Z" transform="translate(-258.616 -176.147)" fill="#020000"></path><path id="Path_1858" data-name="Path 1858" d="M344.1,216.232V196.8h2.783l3.467,11.108V196.8h2.783v19.432H350.35l-3.467-11.108v11.108Z" transform="translate(-273.28 -176.147)" fill="#020000"></path><path id="Path_1859" data-name="Path 1859" d="M394.566,211.368v-3.76h-1.392v-2.783h4.174v6.518q0,4.175-4.174,4.174T389,211.344V199.675q0-4.175,4.175-4.175t4.174,4.175v.684h-2.783v-.684a1.392,1.392,0,1,0-2.783,0v11.669a1.23,1.23,0,0,0,1.392,1.391A1.2,1.2,0,0,0,394.566,211.368Z" transform="translate(-307.219 -175.165)" fill="#020000"></path><path id="Path_1860" data-name="Path 1860" d="M450.6,196.8h2.783v16.674h4.15v2.783H450.6Z" transform="translate(-353.781 -176.147)" fill="#020000"></path><path id="Path_1861" data-name="Path 1861" d="M484.2,216.232l2.221-19.432h4.712l2.222,19.432h-2.783l-.561-4.174h-2.49l-.561,4.174Zm4.565-16.5-.977,9.57h1.953Z" transform="translate(-379.178 -176.147)" fill="#020000"></path><path id="Path_1862" data-name="Path 1862" d="M527.7,216.232V196.8h4.174q4.175,0,4.174,4.175v2.783a2.718,2.718,0,0,1-2.075,2.783,2.871,2.871,0,0,1,2.075,2.783v2.783q0,4.175-4.174,4.175H527.7Zm2.759-16.649v5.566h1.391a1.23,1.23,0,0,0,1.391-1.392v-2.783a1.23,1.23,0,0,0-1.391-1.392Zm0,8.325v5.566h1.391a1.23,1.23,0,0,0,1.391-1.392V209.3a1.23,1.23,0,0,0-1.391-1.392Z" transform="translate(-412.059 -176.147)" fill="#020000"></path></g><g id="Group_134" data-name="Group 134" transform="translate(55.807 114.272)"><path id="Path_1863" data-name="Path 1863" d="M61.4,301.7h3.222v.977h-2.1v1.611H64.5v.977H62.523v2.71H61.4Z" transform="translate(-61.4 -301.578)"></path><path id="Path_1864" data-name="Path 1864" d="M78.523,305.213v2.661H77.4V301.6h1.929a1.567,1.567,0,0,1,1.782,1.709,1.4,1.4,0,0,1-.806,1.416c.488.22.708.635.708,1.562v.244a8.07,8.07,0,0,0,.073,1.318H80.012a4.978,4.978,0,0,1-.1-1.318v-.2c0-.83-.2-1.123-.9-1.123Zm0-.9h.537c.684,0,.952-.293.952-.928a.754.754,0,0,0-.83-.854h-.659Z" transform="translate(-73.494 -301.502)"></path><path id="Path_1865" data-name="Path 1865" d="M95.84,306.387l-.317,1.587H94.4l1.44-6.274h1.465l1.465,6.274H97.6l-.317-1.587Zm1.269-.977c-.244-1.2-.415-2.075-.513-2.685h-.024c-.073.586-.269,1.514-.513,2.685Z" transform="translate(-86.344 -301.578)"></path><path id="Path_1866" data-name="Path 1866" d="M114.6,307.8v-6.274h1.269c1.294,3.467,1.538,4.126,1.611,4.419h0c-.049-.757-.049-1.684-.049-2.71V301.5h1v6.274h-1.221c-1.343-3.686-1.587-4.345-1.66-4.638h0c.049.781.049,1.684.049,2.807v1.831h-1Z" transform="translate(-101.613 -301.427)"></path><path id="Path_1867" data-name="Path 1867" d="M137.757,305.841a1.858,1.858,0,0,1-1.88,1.929c-1.782,0-1.977-1.562-1.977-3.247,0-2.026.586-3.222,2.051-3.222a1.752,1.752,0,0,1,1.807,1.929h-1.1c-.024-.22-.024-.977-.732-.977s-.879.854-.879,2.295c0,1.172.122,2.295.854,2.295.659,0,.732-.757.757-1h1.1Z" transform="translate(-116.201 -301.276)"></path><path id="Path_1868" data-name="Path 1868" d="M152.6,301.7h1.123v2.466h1.514V301.7h1.123v6.274h-1.123v-2.807h-1.514v2.807H152.6Z" transform="translate(-130.336 -301.578)"></path><path id="Path_1869" data-name="Path 1869" d="M173.623,301.7v6.274H172.5V301.7Z" transform="translate(-145.378 -301.578)"></path><path id="Path_1870" data-name="Path 1870" d="M181.223,305.89c.049.513.269.977.83.977s.757-.342.757-.806c0-.513-.244-.806-1.05-1.2-1.074-.513-1.489-.952-1.489-1.88a1.605,1.605,0,0,1,1.782-1.684,1.624,1.624,0,0,1,1.782,1.758h-1.1c-.024-.366-.122-.879-.708-.879-.439,0-.635.293-.635.708,0,.439.2.659.928,1,1.123.513,1.636,1.025,1.636,2.075a1.738,1.738,0,0,1-1.929,1.807,1.758,1.758,0,0,1-1.929-1.855h1.123Z" transform="translate(-151.123 -301.276)"></path><path id="Path_1871" data-name="Path 1871" d="M202.125,305.167h-2V307h2.246l-.146.977H199V301.7h3.222v.977h-2.1v1.514h2Z" transform="translate(-165.409 -301.578)"></path><path id="Path_1872" data-name="Path 1872" d="M226.884,305.555c0-1.074.024-2.295.049-3h-.024c-.22,1.2-.561,3.3-.977,5.322h-1c-.293-1.88-.659-4.15-.854-5.346h-.024c.049.732.073,2.051.073,3.125v2.222H223.1V301.6h1.684c.317,1.733.61,3.491.732,4.394h0c.122-.854.513-2.734.854-4.394h1.636v6.274h-1.074v-2.319Z" transform="translate(-183.625 -301.502)"></path><path id="Path_1873" data-name="Path 1873" d="M246.74,306.387l-.317,1.587H245.3l1.44-6.274h1.465l1.465,6.274H248.5l-.317-1.587Zm1.245-.977c-.244-1.2-.415-2.075-.513-2.685h-.024c-.073.586-.269,1.514-.513,2.685Z" transform="translate(-200.406 -301.578)"></path><path id="Path_1874" data-name="Path 1874" d="M266.523,305.213v2.661H265.4V301.6h1.929a1.567,1.567,0,0,1,1.782,1.709,1.4,1.4,0,0,1-.806,1.416c.488.22.708.635.708,1.562v.244a8.073,8.073,0,0,0,.073,1.318h-1.074a4.978,4.978,0,0,1-.1-1.318v-.2c0-.83-.2-1.123-.9-1.123Zm0-.9h.537c.684,0,.952-.293.952-.928a.754.754,0,0,0-.83-.854h-.659Z" transform="translate(-215.599 -301.502)"></path><path id="Path_1875" data-name="Path 1875" d="M284.1,301.7h1.1v2.807c.342-.561,1.147-2,1.66-2.807h1.294l-1.611,2.441,1.66,3.808h-1.245l-1.172-2.881-.561.781v2.075h-1.1V301.7Z" transform="translate(-229.734 -301.578)"></path><path id="Path_1876" data-name="Path 1876" d="M305.625,305.167h-2V307h2.246l-.146.977H302.5V301.7h3.222v.977h-2.1v1.514h2Z" transform="translate(-243.642 -301.578)"></path><path id="Path_1877" data-name="Path 1877" d="M319.243,302.677H317.9V301.7h3.808v.977h-1.343v5.273h-1.123Z" transform="translate(-255.282 -301.578)"></path><path id="Path_1878" data-name="Path 1878" d="M337.023,301.7v6.274H335.9V301.7Z" transform="translate(-268.888 -301.578)"></path><path id="Path_1879" data-name="Path 1879" d="M345.1,307.8v-6.274h1.269c1.294,3.467,1.538,4.126,1.611,4.419h0c-.049-.757-.049-1.684-.049-2.71V301.5h1v6.274h-1.221c-1.343-3.686-1.587-4.345-1.66-4.638h0c.049.781.049,1.684.049,2.807v1.831h-1Z" transform="translate(-275.842 -301.427)"></path><path id="Path_1880" data-name="Path 1880" d="M368.33,307.572h-.854a3.991,3.991,0,0,1-.049-.537,1.273,1.273,0,0,1-1.245.635c-1.318,0-1.782-1.172-1.782-3.2,0-2.295.781-3.271,2.124-3.271a1.713,1.713,0,0,1,1.807,1.831h-1.1c-.024-.244-.073-.879-.732-.879-.732,0-.928.952-.928,2.319,0,1.465.171,2.27.879,2.27.586,0,.781-.464.781-1.367v-.342h-.854v-.952h1.953Z" transform="translate(-290.431 -301.2)"></path><path id="Path_1881" data-name="Path 1881" d="M391.223,305.89c.049.513.269.977.83.977s.757-.342.757-.806c0-.513-.244-.806-1.05-1.2-1.074-.513-1.489-.952-1.489-1.88a1.605,1.605,0,0,1,1.782-1.684,1.624,1.624,0,0,1,1.782,1.758h-1.1c-.024-.366-.122-.879-.708-.879-.439,0-.635.293-.635.708,0,.439.2.659.928,1,1.123.513,1.636,1.025,1.636,2.075a1.738,1.738,0,0,1-1.929,1.807,1.758,1.758,0,0,1-1.929-1.855h1.123Z" transform="translate(-309.857 -301.276)"></path><path id="Path_1882" data-name="Path 1882" d="M409.024,301.7h1.88a1.856,1.856,0,0,1-.1,3.711h-.684v2.539H409V301.7Zm1.123,2.807h.537c.61,0,.9-.317.9-.977,0-.635-.317-.928-.83-.928h-.61Z" transform="translate(-324.143 -301.578)"></path><path id="Path_1883" data-name="Path 1883" d="M430.225,305.167h-2V307h2.246l-.146.977H427.1V301.7h3.222v.977h-2.1v1.514h2Z" transform="translate(-337.824 -301.578)"></path><path id="Path_1884" data-name="Path 1884" d="M446.957,305.841a1.858,1.858,0,0,1-1.88,1.929c-1.782,0-1.977-1.562-1.977-3.247,0-2.026.586-3.222,2.051-3.222a1.752,1.752,0,0,1,1.807,1.929h-1.1c-.024-.22-.024-.977-.732-.977s-.879.854-.879,2.295c0,1.172.122,2.295.854,2.295.659,0,.732-.757.757-1h1.1Z" transform="translate(-349.918 -301.276)"></path><path id="Path_1885" data-name="Path 1885" d="M462.923,301.7v6.274H461.8V301.7Z" transform="translate(-364.053 -301.578)"></path><path id="Path_1886" data-name="Path 1886" d="M470.24,306.387l-.317,1.587H468.8l1.44-6.274h1.465l1.465,6.274h-1.147l-.317-1.587Zm1.269-.977c-.244-1.2-.415-2.075-.513-2.685h-.024c-.073.586-.269,1.514-.513,2.685Z" transform="translate(-369.344 -301.578)"></path><path id="Path_1887" data-name="Path 1887" d="M489,301.7h1.123V307h2.148l-.1.952H489Z" transform="translate(-384.613 -301.578)"></path><path id="Path_1888" data-name="Path 1888" d="M505.723,301.7v6.274H504.6V301.7Z" transform="translate(-396.405 -301.578)"></path><path id="Path_1889" data-name="Path 1889" d="M513.323,305.89c.049.513.269.977.83.977s.757-.342.757-.806c0-.513-.244-.806-1.05-1.2-1.074-.513-1.489-.952-1.489-1.88a1.605,1.605,0,0,1,1.782-1.684,1.624,1.624,0,0,1,1.782,1.758h-1.1c-.024-.366-.122-.879-.708-.879-.439,0-.635.293-.635.708,0,.439.2.659.928,1,1.123.513,1.636,1.025,1.636,2.075a1.738,1.738,0,0,1-1.929,1.807,1.758,1.758,0,0,1-1.929-1.855h1.123Z" transform="translate(-402.149 -301.276)"></path><path id="Path_1890" data-name="Path 1890" d="M530.643,302.677H529.3V301.7h3.808v.977h-1.343v5.273h-1.123Z" transform="translate(-415.075 -301.578)"></path><path id="Path_1891" data-name="Path 1891" d="M547.123,305.89c.049.513.269.977.83.977s.757-.342.757-.806c0-.513-.244-.806-1.05-1.2-1.074-.513-1.489-.952-1.489-1.88a1.605,1.605,0,0,1,1.782-1.684,1.624,1.624,0,0,1,1.782,1.758h-1.1c-.024-.366-.122-.879-.708-.879-.439,0-.635.293-.635.708,0,.439.2.659.928,1,1.123.513,1.636,1.025,1.636,2.075a1.738,1.738,0,0,1-1.929,1.807A1.758,1.758,0,0,1,546,305.914h1.123Z" transform="translate(-427.698 -301.276)"></path></g></g></svg>