<svg xmlns="http://www.w3.org/2000/svg" id="Logo_Layer" data-name="Logo Layer" viewBox="0 0 595.28 230.45"><defs><style>      .cls-1 {        fill: #e4c48d;      }    </style></defs><g><path class="cls-1" d="m228.65,0c-36.56,0-65.63,29.43-65.63,66s29.07,65.63,65.63,65.63,65.82-29.07,65.82-65.63S265.21,0,228.65,0Zm0,107.87c-23.04,0-41.87-18.83-41.87-41.87s18.83-42.23,41.87-42.23,42.05,19.2,42.05,42.23-19.01,41.87-42.05,41.87Z"></path><path class="cls-1" d="m378.74,107.87h-46.62V5.3c0-1.83-1.65-3.47-3.47-3.47h-16.82c-2.01,0-3.47,1.65-3.47,3.47v121.03c0,1.83,1.46,3.47,3.47,3.47h66.91c2.01,0,3.47-1.65,3.47-3.47v-14.99c0-1.83-1.46-3.47-3.47-3.47Z"></path><path class="cls-1" d="m455.89,2.01c-.55-1.1-1.28-2.01-3.11-2.01h-1.83c-1.65,0-2.56.91-3.11,2.01l-56.86,123.04c-1.1,2.38.37,4.75,3.11,4.75h15.91c2.93,0,4.57-1.83,5.3-3.66l8.96-19.75h54.66l8.96,19.75c1.28,2.56,2.56,3.66,5.3,3.66h15.91c2.74,0,4.21-2.38,3.11-4.75L455.89,2.01Zm-22.67,84.1l17.92-40.22h.55l18.28,40.22h-36.75Z"></path><path class="cls-1" d="m164.64,1.62h-18.71c-1.65,0-2.75,1.1-3.12,2.02l-35.86,80.31-8.83-19.79-8.2-18.36c-.52-1.17-1.69-1.93-2.97-1.93H19.4l4.09,8.91c3.19,6.94,10.12,11.39,17.76,11.39h31.43l30.15,65.67c.55,1.1,1.47,2.02,3.12,2.02h1.83c1.65,0,2.57-.92,3.12-2.02L167.75,6.39c1.1-2.38-.37-4.77-3.12-4.77Z"></path><path class="cls-1" d="m79.25,21.91l-8.16-18.28c-.37-.92-1.47-2.02-3.12-2.02H0l4.09,8.91c3.19,6.94,10.12,11.39,17.76,11.39h57.41Z"></path><path class="cls-1" d="m502.65,1.62c-2.01,0-3.47,1.65-3.47,3.47v13.35c0,1.83,1.46,3.47,3.47,3.47h27.97v104.42c0,1.83,1.65,3.47,3.47,3.47h17c1.83,0,3.47-1.65,3.47-3.47V21.91h18.85c7.63,0,14.57-4.45,17.76-11.39l4.09-8.91h-92.62Z"></path></g><g><path class="cls-1" d="m110.17,156.26l.09,2.98c.28,9.66,6.8,17.23,14.85,17.23h.4c1.34,8.27,7.3,14.42,14.53,14.42h.4c1.34,8.27,7.3,14.42,14.53,14.42h38.48l2.31,5.04c2.61,5.69,8.34,9.36,14.6,9.36h82.46c.14,0,13.92.12,21.58,7.47,2.27,2.18,5.12,3.26,7.97,3.26s5.7-1.09,7.97-3.26c7.66-7.35,21.44-7.47,21.58-7.47h82.49c6.25,0,11.98-3.67,14.59-9.34l2.33-5.06h38.55c7.24,0,13.2-6.15,14.53-14.42h.4c7.24,0,13.2-6.15,14.53-14.42h.4c8.04,0,14.56-7.57,14.85-17.23l.09-2.98H110.17Zm21.19,20.22h44.44c2.68,0,5.14,1.57,6.26,4.01l2.11,4.6h-44.13c-4.11,0-7.57-3.6-8.68-8.62Zm23.62,23.04c-4.11,0-7.57-3.6-8.68-8.62h36.94c2.2,0,4.19,1.28,5.11,3.28l2.45,5.34h-35.82Zm334.91,0h-35.88l2.46-5.35c.92-1.99,2.91-3.27,5.11-3.27h36.99c-1.11,5.02-4.58,8.62-8.68,8.62Zm14.93-14.42h-44.17l2.12-4.61c1.12-2.43,3.58-4.01,6.25-4.01h44.47c-1.11,5.01-4.58,8.62-8.68,8.62Zm14.93-14.42h-50.72c-4.93,0-9.46,2.9-11.52,7.38l-13.77,29.89c-1.67,3.63-5.33,5.97-9.33,5.97h-82.49c-.66,0-16.23.1-25.59,9.08-2.29,2.2-5.62,2.2-7.91,0-9.37-8.98-24.94-9.08-25.59-9.08h-82.46c-4,0-7.66-2.35-9.33-5.98l-13.71-29.86c-2.06-4.49-6.59-7.39-11.53-7.39h-50.69c-4.11,0-7.57-3.6-8.68-8.62h412.01c-1.11,5.01-4.58,8.62-8.68,8.62Z"></path><g><path class="cls-1" d="m228.99,201.79c6.19,0,9.23-1.87,10.89-3.49l.21,3.08h5.6c0-.21-.04-4.56-.04-8.02v-7.81h-17.08v5.22h10.96c-.1.83-.69,2.32-1.35,2.97-1.83,1.8-4.6,2.77-8.16,2.77s-6.64-1-8.09-2.73c-1.11-1.31-1.66-3.11-1.66-5.94s.55-4.74,1.73-6.05c1.56-1.73,4.25-2.7,8.36-2.7,3.73,0,6.22,1.04,7.43,2.28.69.69,1.24,1.69,1.31,2.35h6.36c-.07-1.07-.35-2.38-1.11-3.73-2.11-3.87-6.57-6.19-14.21-6.19-6.91,0-11.44,2.18-13.9,5.22-1.97,2.49-2.66,5.32-2.66,8.82,0,4.01,1.04,7.12,2.66,9.13,2.63,3.25,7.43,4.84,12.72,4.84Z"></path><path class="cls-1" d="m268.34,190.8h10.54l7.23,10.58h7.4l-8.12-11.58c1.94-.31,3.49-1.52,4.39-2.94.69-1.11,1.11-2.73,1.11-4.7,0-2.14-.49-3.7-1.45-4.91-1.42-1.83-4.12-3.01-8.23-3.01h-19.32v27.14h6.46v-10.58Zm.03-11.23h12.13c1.94,0,2.9.42,3.53,1.28.31.45.45,1.18.45,1.83,0,.55-.1,1.28-.45,1.83-.42.69-1.38,1.07-3.15,1.07h-12.51v-6.01Z"></path><path class="cls-1" d="m322.77,201.79c6.46,0,11.2-1.59,13.9-4.7,1.97-2.28,3.11-5.36,3.11-9.44s-.86-6.91-3.08-9.27c-3.01-3.15-7.4-4.7-13.93-4.7s-10.79,1.59-13.93,4.98c-2.14,2.32-3.08,5.29-3.08,8.99,0,4.11,1.17,7.22,3.35,9.51,2.84,2.97,7.33,4.63,13.66,4.63Zm-8.47-19.95c1.59-1.66,4.29-2.77,8.43-2.77,4.36,0,6.67,1,8.54,2.7,1.35,1.24,1.87,3.59,1.87,5.98s-.52,4.63-1.9,5.98c-1.83,1.8-4.29,2.73-8.47,2.73-3.84,0-6.19-.83-8.06-2.42-1.66-1.42-2.28-3.66-2.28-6.29,0-2.42.66-4.6,1.87-5.91Z"></path><path class="cls-1" d="m369.73,201.76c9.68,0,15.14-3.63,15.14-10.44v-17.08h-6.53v16.56c0,3.56-3.11,5.7-8.33,5.7-5.77,0-8.57-2.28-8.57-5.7v-16.56h-6.6v16.45c0,7.5,5.88,11.06,14.9,11.06Z"></path><path class="cls-1" d="m408.46,193.25s11.48.03,12.34.03c4.11-.03,6.98-1.04,8.71-3.25,1.11-1.42,1.73-3.49,1.73-6.26,0-3.18-.8-5.43-2.04-6.81-1.56-1.8-4.42-2.73-8.4-2.73h-18.87v27.14h6.53v-8.12Zm-.04-13.69h11.03c2.52,0,4.01.59,4.7,1.63.31.48.48,1.42.48,2.56,0,1.07-.1,1.87-.48,2.45-.66,1.07-2.07,1.63-4.77,1.63h-10.96v-8.26Z"></path></g></g></svg>